G:\RME\Thesis\opencap-processing\Data\089bb815-6ab6-4c35-820c-ac6f9c5db3e0\OpenSimData\Dynamics\squat\GRF_resultant_squat_0.mot
version=1
nRows=25
nColumns=19
inDegrees=yes
endheader 
time	ground_force_right_vx	ground_force_right_vy	ground_force_right_vz	ground_force_right_px	ground_force_right_py	ground_force_right_pz	ground_torque_right_x	ground_torque_right_y	ground_torque_right_z	ground_force_left_vx	ground_force_left_vy	ground_force_left_vz	ground_force_left_px	ground_force_left_py	ground_force_left_pz	ground_torque_left_x	ground_torque_left_y	ground_torque_left_z	
          1.32000000	        -41.37116076	        391.30482079	        -41.84675250	          1.08594240	          0.00000000	         -0.03801763	          0.00000000	          1.15937134	          0.00000000	         19.29673245	        333.25865642	         19.47991092	          1.13950796	          0.00000000	         -0.47935153	          0.00000000	          1.02709213	          0.00000000	
          1.34000000	        -43.92846278	        391.33881476	        -40.85646314	          1.08138625	          0.00000000	         -0.03806555	          0.00000000	          1.83440991	          0.00000000	         23.77572871	        332.98617945	         14.72197003	          1.13936407	          0.00000000	         -0.47973541	          0.00000000	          1.11898137	          0.00000000	
          1.36000000	        -40.57634176	        393.31694300	        -45.07671029	          1.07748032	          0.00000000	         -0.03806233	          0.00000000	          2.51338363	          0.00000000	         21.28508261	        336.26846216	         17.63577815	          1.13909548	          0.00000000	         -0.47998201	          0.00000000	          1.22840573	          0.00000000	
          1.38000000	        -36.30277169	        395.56836190	        -40.63457837	          1.07419250	          0.00000000	         -0.03777925	          0.00000000	          3.24705286	          0.00000000	         17.66130364	        342.36489825	         13.96609568	          1.13878769	          0.00000000	         -0.48039047	          0.00000000	          1.27509569	          0.00000000	
          1.40000000	        -28.31982255	        394.48995771	        -40.75814599	          1.07161036	          0.00000000	         -0.03746895	          0.00000000	          3.76883987	          0.00000000	          9.03953368	        346.65279519	         17.76826540	          1.13838586	          0.00000000	         -0.48065518	          0.00000000	          1.28429393	          0.00000000	
          1.42000000	        -20.62945895	        388.20033858	        -36.79834253	          1.06952277	          0.00000000	         -0.03702292	          0.00000000	          4.15031056	          0.00000000	          0.04844938	        347.64681392	         19.57575383	          1.13793833	          0.00000000	         -0.48100173	          0.00000000	          1.20042052	          0.00000000	
          1.44000000	        -13.06214629	        375.73666609	        -32.63073907	          1.06775394	          0.00000000	         -0.03657226	          0.00000000	          4.34454211	          0.00000000	         -9.44764167	        343.73529709	         22.47349629	          1.13738860	          0.00000000	         -0.48135128	          0.00000000	          1.03296376	          0.00000000	
          1.46000000	         -7.34505705	        358.14283614	        -27.49182700	          1.06603673	          0.00000000	         -0.03615763	          0.00000000	          4.40007322	          0.00000000	        -16.94079655	        335.20208031	         24.54860139	          1.13669113	          0.00000000	         -0.48173603	          0.00000000	          0.77586557	          0.00000000	
          1.48000000	         -3.36590993	        337.93381090	        -22.79226465	          1.06416302	          0.00000000	         -0.03584375	          0.00000000	          4.36705089	          0.00000000	        -22.21112813	        323.41991007	         26.32044146	          1.13570209	          0.00000000	         -0.48212599	          0.00000000	          0.44408013	          0.00000000	
          1.50000000	         -1.32386249	        318.06123510	        -18.70529361	          1.06195763	          0.00000000	         -0.03565527	          0.00000000	          4.30043078	          0.00000000	        -24.80101876	        310.35557045	         27.29610447	          1.13418412	          0.00000000	         -0.48250005	          0.00000000	          0.03106631	          0.00000000	
          1.52000000	         -0.98682076	        301.11517321	        -15.33465560	          1.05932946	          0.00000000	         -0.03559787	          0.00000000	          4.24133076	          0.00000000	        -24.89160073	        297.99039390	         27.14672802	          1.13172624	          0.00000000	         -0.48280249	          0.00000000	         -0.50115609	          0.00000000	
          1.54000000	         -1.32034895	        289.04671244	        -12.40947325	          1.05631568	          0.00000000	         -0.03564523	          0.00000000	          4.22027911	          0.00000000	        -23.52896853	        288.05880719	         25.22133991	          1.12772605	          0.00000000	         -0.48293939	          0.00000000	         -1.25201002	          0.00000000	
          1.56000000	         -1.65603417	        282.97732821	        -12.80745228	          1.05304123	          0.00000000	         -0.03579242	          0.00000000	          4.14656367	          0.00000000	        -21.65777510	        281.47314742	         24.80068319	          1.12160933	          0.00000000	         -0.48273575	          0.00000000	         -2.31222717	          0.00000000	
          1.58000000	         -1.37727797	        283.65041700	        -15.50908243	          1.04967029	          0.00000000	         -0.03593101	          0.00000000	          4.03999155	          0.00000000	        -20.18998970	        279.07011558	         25.11128726	          1.11309955	          0.00000000	         -0.48218012	          0.00000000	         -3.70750461	          0.00000000	
          1.60000000	         -0.49386917	        291.15494886	        -19.39455256	          1.04635225	          0.00000000	         -0.03597110	          0.00000000	          3.90341864	          0.00000000	        -19.28182145	        281.53966634	         25.56146230	          1.10228388	          0.00000000	         -0.48136222	          0.00000000	         -5.28356957	          0.00000000	
          1.62000000	          0.62551562	        304.51083895	        -23.41793478	          1.04318291	          0.00000000	         -0.03587484	          0.00000000	          3.71932723	          0.00000000	        -18.62961157	        289.31216994	         26.20814507	          1.08967124	          0.00000000	         -0.48045065	          0.00000000	         -6.67703106	          0.00000000	
          1.64000000	          1.31668239	        321.21097659	        -27.10768691	          1.04016767	          0.00000000	         -0.03568015	          0.00000000	          3.45998812	          0.00000000	        -17.53726235	        301.07927982	         27.31461661	          1.07640412	          0.00000000	         -0.47956629	          0.00000000	         -7.44546955	          0.00000000	
          1.66000000	          1.34718490	        337.65059065	        -30.09355427	          1.03725890	          0.00000000	         -0.03546891	          0.00000000	          3.08445570	          0.00000000	        -15.72359223	        313.98126902	         28.70162566	          1.06373235	          0.00000000	         -0.47875104	          0.00000000	         -7.34495197	          0.00000000	
          1.68000000	          0.62547284	        350.78718845	        -31.85438517	          1.03439977	          0.00000000	         -0.03531614	          0.00000000	          2.57993385	          0.00000000	        -13.07710023	        326.03211829	         29.82682899	          1.05243029	          0.00000000	         -0.47804028	          0.00000000	         -6.47901683	          0.00000000	
          1.70000000	          0.24231814	        359.42030445	        -32.44700459	          1.03159894	          0.00000000	         -0.03525667	          0.00000000	          1.98491798	          0.00000000	        -10.73753273	        336.96048247	         30.61755578	          1.04277022	          0.00000000	         -0.47745242	          0.00000000	         -5.15251317	          0.00000000	
          1.72000000	         -0.12164679	        364.13591744	        -32.87909275	          1.02890351	          0.00000000	         -0.03528421	          0.00000000	          1.30688428	          0.00000000	         -8.34491428	        347.68131796	         32.01332117	          1.03479002	          0.00000000	         -0.47700012	          0.00000000	         -3.75084796	          0.00000000	
          1.74000000	          0.00290503	        366.42059783	        -32.37970440	          1.02641401	          0.00000000	         -0.03532247	          0.00000000	          0.64653483	          0.00000000	         -6.68650784	        359.55033742	         32.95707956	          1.02843495	          0.00000000	         -0.47675157	          0.00000000	         -2.44232807	          0.00000000	
          1.76000000	          0.31840267	        367.11060564	        -31.66693235	          1.02420657	          0.00000000	         -0.03532735	          0.00000000	          0.04817382	          0.00000000	         -5.64087667	        372.84588063	         33.96899914	          1.02360004	          0.00000000	         -0.47674256	          0.00000000	         -1.33022471	          0.00000000	
          1.78000000	          0.74067617	        366.21949141	        -31.34367499	          1.02231497	          0.00000000	         -0.03527370	          0.00000000	         -0.46249597	          0.00000000	         -5.26208623	        386.56239980	         35.50243466	          1.02007565	          0.00000000	         -0.47695816	          0.00000000	         -0.43427820	          0.00000000	
          1.80000000	          1.11120761	        363.49645637	        -31.60603395	          1.02072201	          0.00000000	         -0.03515341	          0.00000000	         -0.86751261	          0.00000000	         -5.45222147	        399.05005181	         37.55107339	          1.01757421	          0.00000000	         -0.47733625	          0.00000000	          0.26138146	          0.00000000	
